<?xml version="1.0" encoding="utf-8"?>
<!-- Generator: Adobe Illustrator 28.0.0, SVG Export Plug-In . SVG Version: 6.00 Build 0)  -->
<svg version="1.1" id="Layer_1" xmlns="http://www.w3.org/2000/svg" xmlns:xlink="http://www.w3.org/1999/xlink" x="0px" y="0px"
	 viewBox="0 0 3500 3500" style="enable-background:new 0 0 3500 3500;" xml:space="preserve">
<g>
	<path d="M720.5,2327.7c-8-15.2-7.9-28.3,8.8-38.1c5.7-3.4,3.3-8,0.2-12.8c-9.1-14.5-17.9-29.2-26.3-44.1
		c-15.2-27.1-9.2-43.2,18.5-52.7c-33.3-74.2-61.6-149.6-60.2-235c33.9,24.4,68.4,45,105.4,61.2c-27.2-18.6-52.3-39.4-73.7-64.2
		c-19.5-22.5-32.4-47.6-24.3-78.8c8.4-31.9,29.7-48,62.7-47.6c9.5,0.1,19.2,0.9,28.6,2.5c20.7,3.5,37.3-4.4,49-20
		c17.3-23,25.2-50,9.6-76.3c-19.8-33.3-19.6-69-19-105.3c0.3-17.7,10.7-29.4,21.3-43c29-36.9,71-36.2,110.4-43.5
		c16.7-3.1,32.8,2.9,47.9,10.6c9.8,5.1,19.7,10.1,29.6,15.1c16.4,8.2,21.9,20.8,14.6,37.2c-3.2,7.3-2.6,13.2,0,20
		c8.5,22.5,13.9,45,3.6,68.8c-2.8,6.4-0.4,13.8,1.2,20.7c1.6,6.7,6.1,15.4,1.4,20.4c-15.5,16.1-14,36.9-17.9,56.2
		c-3.7,18.5-8,21.8-27.3,23.4c-9.9,0.8-22.1-5.4-29.3,6.1c-8.8,14-8.5,29.7-6.1,45.4c1.3,8.4,8.8,10.5,15.3,12.9
		c24,8.7,49.3,13.1,73.8,21.2c-6.3-3.9-12.7-7.9-20.1-12.5c47.5-11.7,89.7-0.7,129.3,22.6c9.6,5.7,17.9,6,28.2,2.7
		c20.7-6.5,38.5-17,54-32c2.5-2.4,5.2-4.8,8-6.9c35-26.6,30.9-25.4,66.7-3.7c7.4,4.5,11.2,4.4,16.4-1.3
		c11.5-12.7,23.1-25.2,34.6-37.9c1.9-2.1,5.4-4.9,3.5-7.7c-9.2-13.8,2.5-19.9,9.8-27.5c9.1-9.4,18.6-18.5,27.9-27.6
		c3.3-3.2,6.2-6.4,11.7-3.4c14.4,8,14.5-5.2,14-11.9c-0.8-10.7-1.6-21,2.5-31.1c2.3-5.6-1-8.3-4.9-11.1
		c-30.3-20.9-60.3-42-90.8-62.6c-7.3-4.9-16.6-5.6-24.1-11.4c-6.4-4.9-10.6,3.5-14.2,7.6c-5.9,6.6-11.8,10.1-18.9,2.7
		c-8.2-8.6-0.4-13.2,5.4-18c2.3-1.9,4.7-3.8,7.3-5.3c8.8-5,7.8-10.1,0.6-15.7c-1.6-1.2-2.8-2.9-4.5-4c-7.8-5.2-13.8-11.2-6.6-20.9
		c7.5-10.2,14.9-3,20.4,1.9c8.7,7.7,14.1,9.1,25.1,1.1c19.8-14.3,43.8-22,63.6-37.1c11.3-8.7,21.3-18.3,29.8-29.7
		c1.2-1.6,1.9-4.4,3.4-4.8c30.3-8,38.3-41.2,63.9-55.5c24.8-13.9,46.4-33.6,69.5-50.7c9.3-6.9,17.6-15,25.9-23.1
		c7.3-7,12.3-19.8,27.2-12c2.1,1.1,8.8-5.6,12.7-9.4c74.6-71.4,149-143.1,223.8-214.3c128.1-121.9,256.5-243.4,384.9-365
		c5.8-5.5,12.3-10.3,21.6-17.9c-4.2,11.5-11,16.4-16.7,21.8c-49.7,47.2-99.4,94.2-149.3,141.2c-109,102.5-216.8,206.2-324.2,310.3
		c-44.8,43.5-90.1,86.6-135.1,129.9c-6.4,6.2-14.5,11.7-7.7,22.7c1.8,3-0.2,6.7-3.6,9c-41.4,28.2-75.8,64.2-110.8,99.6
		c-9.8,9.9-22.7,16.5-33.6,25.4c-18.3,15-33.6,33-48.7,51.1c-5.2-3.6-1.5-9.4-5.9-13.3c-15.4,15.7-30.8,31-41.5,50.6
		c-4.8,8.9-4.9,16.3,3.6,22.4c21.6,15.6,43.4,31,65.1,46.5c2.9,2.1,5.8,3.5,9.7,1.6c12.8-6.1,25.4-6.3,39.7-3
		c10,2.3,21.1,0.7,31.8,3.4c8.4,2.1,14.8-8.2,11.9-16.8c-2.1-6.3,10.9-22.2,18.9-20.7c7.3,1.4,9.9-2.7,13.9-6.1
		c25.2-21.1,47.3-45.3,70.4-68.4c6.7-6.7,13.7-13.1,4.8-24.2c-3.5-4.3-1-12.9-3.1-18.9c-1.7-4.8,9-13.3-4.1-14.5
		c0.5-1.2,0.6-2.9,1.4-3.5c30.3-22.1,48.2-56.5,81.1-76.7c53.1-32.7,103.9-69.2,156.5-102.8c18.4-11.7,31-28.6,45.7-43.5
		c116.3-118.1,232.2-236.6,348.2-355c23.3-23.7,46.1-47.9,69.7-71.3c7.4-7.3,5.5-11.9-1-18.3c-25.8-25.6-51.7-50.8-78.9-74.9
		c-7.6-6.7-19.7-13.2-17.2-24.5c3.5-15.6,15.7-26.8,29.3-35.1c6.3-3.8,11.7,1.8,16.1,5.2c10.7,8.3,22.1,10.8,35.3,9.3
		c61.5-6.8,123.1-13.3,184.6-19.9c6.5-0.7,12.9-1.3,20.6-2.1c-1.8,8.2-8.1,11.2-12.6,15.1c-44.7,39.4-84,84-122.9,129
		c-6.5,7.6-12.3,16.1-16.6,25.1c-3.4,7.1-5.8,7-10.5,2.1c-1-1.1-2.3-2.1-3-3.3c-7.9-12.8-12.2-10.8-22.5,0.4
		c-42,45.5-86.1,89.1-129.4,133.4c-96.5,98.7-193.1,197.3-289.6,296c-0.9,0.9-1.4,2.3-0.8,5.1c18.8-12.8,37.5-25.7,56.3-38.5
		c145.6-99,291.2-198.1,436.8-297c4-2.7,7.4-7.1,13.2-6.5l-0.3-0.4c-1.9,10.4-11.7,13.3-18.7,18.2c-70.7,49-141.6,97.8-212.7,146.3
		c-92.3,62.9-184.3,126.3-277.6,187.7c-24.9,16.4-44.4,37.5-64.9,58.1c-26.6,26.8-52.5,54.3-79.2,81.1c-6.2,6.2-10.6,11.7-6.1,20.6
		c4.1,8.1,1.1,13.9-5.3,19.7c-15.4,13.8-29.8,28.7-45.4,42.1c-6.1,5.3-8.9,10-7.2,18c1.1,4.9,0.8,10,1.1,15.1
		c0.5,8.5-3.5,15-10.6,18.6c-7.4,3.8-14.7,1.8-20.9-3.8c-1.1-1-2.2-2.2-3.4-3c-6.6-4-9.2-15.9-17-14.2c-6,1.3-10.5,10.1-15.5,15.8
		c-24.2,27.5-52.6,51.2-73,82.5c-5,7.7-11.8,18-25.3,20c-11.2,1.7-11.7,12.6-2.7,20.1c19.3,16.1,20.3,18.5,13.1,40.6
		c-1.7,5.1-1.7,8.5,2.5,11.8c25.7,20.3,52.2,39.4,80.4,56.2c3.8,2.3,5.8,1.8,9.1-0.7c14.6-10.6,30.1-19.4,47.4-25.6
		c8-2.8,15.5-9.9,20.8-16.9c31.8-42.3,69.8-77.9,110.9-111.2c33.7-27.3,68.9-53.1,97.4-86.4c3.1-3.6,7.5-7.5,11.6-4.1
		c11.4,9.4,17.5-0.6,23.9-6.1c84.1-72.1,167.9-144.7,252.1-216.7c87.2-74.6,173.6-150.3,262.5-223c7.7-6.3,15.7-12.2,25.5-19.8
		c-0.7,9.8-7.1,12.9-11.5,16.6c-43.8,37.1-88.1,73.6-131.8,110.9c-106.4,91-212.5,182.3-318.6,273.7c-26.3,22.7-52.3,45.8-78.2,68.9
		c-5.4,4.8-12.7,9-8.2,18.7c2,4.3-1.1,7.5-4.7,10c-23.1,16.4-42.8,36.7-61.5,57.7c-25.2,28.3-54.1,53-82.7,77
		c-21.6,18.2-40.6,39.7-64.5,55.6c-16,10.7-25.5,28.4-34,45.5c-3.7,7.3-4,15.4-14.4,18.7c-7,2.2-2,7.8,1.8,11.5
		c4.1,4.1,10.2,7.2,9.5,14.4c-1.1,12-13.8,17.5-23.2,8.4c-12.4-12.1-20.5-11.4-29.4,3.1c-3.3,5.4-7.9,12.6-16.9,5.4
		c-8.9-7.1-5.3-13.6,0.8-18.7c10.1-8.5,7-14.8-0.5-22.9c-27.7-29.8-63.3-49.7-94.7-74.8c-7.9-6.3-11.2,3.5-16.6,5.6
		c-8.4,3.2-18.9,6.2-12.8,19.6c0.6,1.3-0.6,4.1-1.7,5.5c-24.8,32.9-38,72-58.2,107.4c-18.6,32.6-40.9,62.2-64.3,91.3
		c-10.2,12.7-23.4,18.1-39.6,18.4c-43.3,0.8-86.6,2.5-129.9,3.2c-11,0.2-19.4,2.5-25.2,12.7c-2.9,5.2-7.3,9.7-11.7,13.8
		c-8.5,7.9-13.8,14.5-1.8,24.8c8.2,7,5.3,18.3-1.2,24.6c-13.2,12.8-9.6,26.9-6.7,41.6c5.9,30,11.1,60.1,17.6,90
		c1.8,8.2-0.6,10.5-7.5,12.6c-27.3,8.2-28.1,8-29.1-20.7c-0.8-23.1-1-46.2-5.6-71.9c-7,12.3-14.6,21.2-25.6,27.3
		c-7,3.9,0.3,9.6,2.2,14.2c2.5,6.1,9.1,12.3-3.1,16.1c-5.4,1.6-2.8,6.4-1.2,10.2c4.2,10.2,7.3,21,12.6,30.6
		c4.5,8.1,1.1,10.1-5.5,12.2c-18.5,5.7-36.7,12-52.2,24.9c35.5-10.6,70.9-21.2,106.4-31.7c25.5-7.5,51.2-14.6,77.8-17.3
		c28.2-2.8,55.8,4.3,68.5,38.4c7.7,20.5,14.6,41.6,27,60.2c-7.9-26.8-15.9-53.6-28.5-78.6c-5.4-10.6-4.5-14.9,7.5-19.2
		c64-23.3,129.4-40.5,196.6-51.3c31.4-5.1,57.1,3.1,74.3,33c14.2,24.6,35.3,44,57.1,62c44,36.3,78.8,80.5,111.5,126.6
		c12.5,17.7,25.2,35.2,40.2,51c3.1,3.3,5.3,7.4,10.9,3c21-16.2,41.9-9.9,59.4,4.5c16.5,13.6,27.6,9.9,43.6-1.1
		c170.4-116.9,353.5-208.5,550.1-272.7c16.3-5.3,32.7-10.1,49-15.2c8.1-2.5,12.2-0.9,15.1,8.5c17.1,55.8,29.3,112.6,37.9,170.4
		c2.1,14.1-1.6,23.9-10.7,35.2c-78.8,97-167.9,183.6-264.7,262.3c-146,118.7-305.7,214.6-482.6,280c-116.4,43-236.2,73.6-359.1,92
		c-94.6,14.2-189.3,26.6-285.3,24.6c-3-0.1-6,0-9.4-1.8c199.9-24.9,395.2-69.6,585-137.2c-30.8,8.7-61.5,17.4-92.3,26.1
		c-95.3,26.9-191.3,51.2-289.1,66.9c-102,16.3-204.7,27-308.2,21.9c-68.2-3.4-133.8-21.5-199-40.5c-59-17.2-116.4-39-171-67.5
		c-2.6-1.4-5.2-2.8-7.4-5.4c141.6,38.9,285.8,58.9,432.2,63.6c-68.6,6.6-137.4,10.1-206.1,14.6c141.9,17.9,282.7,2.8,423.8-12
		c-17.4,12.6-38.2,16.4-57.2,25.8c20.9-1,41.8-1.7,62.6-3.2c2.8-0.2,5.5-4.2,7.8-6.8c53.1-56.5,104.7-114.6,159.8-169.2
		c6.8-6.8,7.4-12.7,3.6-21.1c-7.5-16.5-14.3-33.3-21.1-50.1c-2.5-6.1-5.8-8.8-13.1-9.2c-19.8-1.2-32.3-22.5-22.1-39.2
		c5.2-8.6,2.8-12.6-2.8-17.5c-22.6-19.3-44.9-39-68-57.6c-41.5-33.5-80-69.5-104.5-117.8c-4.9-9.6-9.2-4.3-13.9-1.9
		c-53.9,26.4-109.3,49.1-165.7,69.4c-93.4,33.5-162.3,12-220.1-68.8c-13.4-18.8-25.3-38.6-38.5-58.8c-6.7,5.6-3.4,11.4-1.9,17.4
		c9.5,36.6,17.1,73.4,12.6,111.5c-2.7,22.1-10.4,42-29,56c-27.3,20.6-58.5,16.9-80.3-9.4c-19.9-24-25.4-53.2-29.5-82.7
		c-6.2-44.6-5.1-89.8-1.2-134.2c1.5-16.7,9.7-35.3,16.2-52.6c2.8-7.5,4.8-15.4,7.4-23c1.3-4,1-6.9-3.9-7.5L720.5,2327.7z
		 M1516.6,2343.3c-10.4,2.5-20.3,7.5-28.8,14.6c-28.6,23.8-56.7,48.4-85.5,71.9c-7.7,6.3-7.1,11.2-3.1,19
		c13.3,25.9,25.9,52.3,38.9,78.3c19.4,38.9,42.6,75.3,74,105.9c10.4,10.1,20.7,21.6,36.5,8c1.4-1.2,3.8-1.2,5.7-1.6
		c22.8-4.9,41.2,4.3,57.9,18.5c13.1,11.2,35.2,16.9,43,10.6c34.8-28.1,69.7-56.2,104.4-84.6c17.4-14.2,16.7-26.3-1.9-39.3
		c-31.3-22-63.6-42.5-97.5-60.3c-30.7-16.1-57.6-36.8-79.6-63.7c-15.4-18.8-26.9-40.1-39.7-60.6
		C1535.3,2351.3,1528.6,2344.1,1516.6,2343.3z M721.1,2473.5c0,16.9-1.1,32.5,0.2,47.9c2.7,29.9,6.3,59.9,21.6,86.8
		c15.7,27.5,45.8,30.9,64.4,7.6c7-8.8,11.3-19,13.5-29.9c8.4-41.7-2.5-81.1-13.2-121.7C779.9,2484.7,752.4,2496.5,721.1,2473.5z
		 M744,2345.1c-13.2,29.9-22.7,61.3-18.9,93.9c2.7,23.2,27.2,33.8,48.7,24.5c14.3-6.2,25.4-16.1,33-29.7c10-18,19.5-36.3,30.2-53.9
		c9.9-16.3,21-31.7,31.6-47.6c-28.1,15.6-45.1,40.4-58.5,68.2c-3.5-34,17.5-57.1,34.3-82.1c-26.7,22.5-45.7,48.9-43.6,86.8
		c-12.4-27.5-20.2-56-33.9-83.2c-4.7,6-4.1,12.3-3.2,17.9c1.7,10.4,4,20.8,7.2,30.8c4.6,14.3-2.1,23.4-12.7,30.7
		c-8.7,6-15.1,0.9-20.6-5.7c-3.7-4.4-7.8-10.2-1.2-14.2C752.6,2371.9,747,2358.4,744,2345.1z M1436.8,1756.5
		c-12.3,15.4-25.9,27.2-32,43.8c-4.5,12.2-12.1,18.1-24.2,18.6c-6.2,0.3-11.5,0.6-16.2,5.8c-12.1,13.4-24.8,26.3-37.4,39.2
		c-2.7,2.7-5.9,5.5-2.4,8.6c8,7.1,3.6,15.5,3.5,24.6c11.8-10.8,22.8-20.8,33.8-31c25-23.3,50.1-46.5,68.6-75.7
		C1436.3,1781,1441.9,1771.6,1436.8,1756.5z M1181.8,2022.6c-25.2,1.7-50-8-64.1,19.1c-1.6,3.1-6.2,5.2-9.9,6.7
		c-20.1,8.1-32.2,19.5-21.3,43.1c1.9,4.1,0.8,9.7,1.1,15c7.6-1.8,14.1-6.6,21.1-4.8c12,3,11.8-2.8,11.5-11.9
		c-0.9-24.8,3.1-29.3,26.7-33c4.8-0.7,8.4-2,11.5-5.9C1165.2,2042.1,1172.4,2033.8,1181.8,2022.6z M1010.3,2354.4
		c-61.4,22.4-92.4,42-92.4,72.9C960,2429,985,2409.3,1010.3,2354.4z M1715.9,1433.2c27.7,16.7,48.1,9.9,65-13.7
		c5.5-7.7,13.4-13.6,20-20.4c17.3-17.7,34.5-35.4,51.8-53.2c-0.8-0.9-1.7-1.8-2.5-2.7C1805.5,1373.1,1760.9,1403.1,1715.9,1433.2z
		 M878.3,2480.5c-2-40.6,2.6-76.9,20.2-111.8C848.9,2391.1,841.9,2427.4,878.3,2480.5z M810.5,2144.4c-20,3.6-23.8,19.2-33.2,28.8
		c-2.8-3.6,0.7-8.5-3.9-10.8c-11.2,26.8-12.5,49.2-3.4,82.3C777.5,2207.5,784.1,2173.3,810.5,2144.4z M1123.7,2132
		c1.9-10.7-2.4-13.2-13.7-9c-14.9,5.4-15.8,16.3-13.8,29.1c0.7,4.4,5.5,11.5-5.7,8.4c-2.7-0.7-4.4,2.4-3.4,5.2
		c1.4,3.6,4,5.2,8.3,4.3C1111.1,2166.6,1123.4,2150.9,1123.7,2132z M753.2,2260.9c5.5-3.1,8.4-6.4,5.8-11.6
		c-8.2-16.6-16-33.4-27.4-48.1c-2.4-3.1-5.6-6.4-10.2-4.2c-5.5,2.6-4.5,7.8-2.8,11.8c5.2,12.4,11.1,24.6,16.6,36.9
		c0.8,1.8,1.2,3.7,4,2.4C752.9,2241.2,751.3,2252.4,753.2,2260.9z M989.4,2240.8c29.4-29.9,58.9-59.5,82.8-94.2
		c3.1-4.6,6.2-9.1,6.6-14.8c0.3-3.7,3.5-9-1.8-10.2c-4.8-1.1-8.9,3.5-8.1,8.4c2.8,17.8-10.2,27-19.7,38.2
		C1029.1,2192.1,1006.8,2214.4,989.4,2240.8z M795.7,2245.4c-23.9,15.2-45.6,32.3-55.1,60.3C756.7,2283.5,779.3,2267.3,795.7,2245.4
		z M1733.3,1446.3c-23.2-0.4-42.8,21.3-35.1,35.5C1707.4,1468.8,1720.2,1459.4,1733.3,1446.3z M760.5,2140.1
		c-24.7,17.6-30.4,40.6-14.9,61.4C742.9,2178.7,747.5,2159.5,760.5,2140.1z M1863.9,1647.2c-19.2,15-33,35.4-51.7,51.1
		C1832.3,1684.2,1850.8,1668.5,1863.9,1647.2z M1768,1713.8c12.8-6.2,20.6-15.3,28.9-25.8C1780.2,1689.2,1768.8,1699.3,1768,1713.8z
		 M1459,1483.2c12-5.6,22.1-13.4,29.6-24.4C1474.6,1461.9,1463.4,1468.5,1459,1483.2z M1778.4,1726.2c16.5-3.9,22.9-12.4,20.1-27.3
		C1791.9,1708.5,1782.6,1714.2,1778.4,1726.2z M1652.8,1502.8c-9.7,12.9-6,23.2-0.5,36.2C1657.4,1526.3,1657.4,1516.2,1652.8,1502.8
		z M1681.5,1495.5c0.3-3.5-1.7-5.8-4.1-4.3c-5.7,3.5-12.8,6-15.1,12.8c-1.6,4.8,3.7,5.3,6.8,5.4
		C1678.7,1509.6,1678.5,1500.8,1681.5,1495.5z M1474.1,1495.1c10.3-5,19.8-10.6,19.6-26.8
		C1483.4,1476.8,1476.7,1484.4,1474.1,1495.1z M1217.6,1985.5c-1-0.8-2-1.6-3-2.3c-10.1,11.6-20.1,23.3-30.2,34.9
		c1.1,0.9,2.2,1.8,3.3,2.7C1197.7,2009.1,1207.6,1997.3,1217.6,1985.5z"/>
	<path d="M2421,952.2c-10.2-23.3-27.7-41.9-41.1-63.2c-4.8-7.6-5.1-12.8,1.3-19.7c76.2-83.4,153.4-165.6,248.1-228.9
		c5.9-3.9,11.8-7.7,18-11c17-9.1,30-8,37.7,9.6c19.5,44.7,59.7,72.5,86.4,111.2c25.4,36.9,51.9,73,73.6,112.4
		c9,16.3,15.3,33.1,2.5,51c13.3,0.3,17.2,10.2,20.9,19.2c23,55.9,40.6,113.5,51.4,173.1c4.7,26.2,9.2,52.4,11.9,78.9
		c1.2,11.6-2,21.2-10.7,28.3c-59,47.6-123.3,86.6-194.6,118.8c20.4-144.1,14.1-284.9-15-425.3c-20.5,83.8-54.5,161.9-94.4,240.5
		c-28.4-80.4-65.5-154.3-109.9-225.9c-2.6,6.6,1.6,9.8,3.6,13.5c36.7,68.3,70,138.1,95.5,211.5c4,11.5,3.9,19.4-6.7,26.9
		c-12.5,8.9-21.7,22.1-38.4,25.6c-12.3,2.6-18.5-0.6-22.8-12.4c-12.7-35-28-69-44.3-102.5c-22-45.3-44.6-90.2-73.2-131.8
		C2420.7,951.9,2421,952.2,2421,952.2z"/>
	<path d="M2049.1,542.6c24.2-24.8,49.5-43.5,76.3-60.5c26.7-16.9,54.6-31.8,82.9-46.1c-17.7,0.7-34,6.5-49.7,14
		c-45.8,21.9-87.3,50.2-124.1,85.1c-5.7,5.4-10.8,7-18.6,6.6c-24.6-1.5-49.3-2.8-75.9,3.7c24.8,6.1,48.7,6.6,71.3,14.7
		c-7.2,14.5-18.1,28.4-3.8,45.5c1.8-5.3,3-9.9,4.9-14.1c10.1-22,17-24.6,39-15.5c67.1,27.8,131.5,60.8,192.6,100.1
		c9,5.8,8.9,8.3,1,15.2c-11.2,9.8-15.8,24-19.1,39.4c-24.2-15.1-47.5-30-71.2-44.1c-16.4-9.8-33.5-18.5-50.1-27.8
		c-6.5-3.7-11.3-3.2-17.5,1.9c-13.1,10.9-26.9,21.2-41.1,30.8c-24.5,16.4-44.1,36.7-61.8,60.8c-17.8,24.2-29.5,50.6-41.4,77.4
		c-2.2,5-3.1,9.5-10.3,5.6c-56.3-30.4-100.4-72-122.9-133.4c-3.2-8.9-5.6-16.6,9.2-15.7c10,0.6,11.9-8.9,14.3-17
		c-2.4,2.6-4.7,5.3-7.1,7.9c-4.9,5.3-11.2,7.6-17.8,5.5c-6.9-2.2-4.8-9.2-5.2-14.4c-4.2-56.5,21.6-97.7,66.3-128.9
		c8.1-5.6,15.6-12.4,27.9-16.6c-9.1,11.2-17.4,19.7-23.7,29.4c-6.7,10.2-11.2,21.7-2.2,33.7c13.3-46.9,51.3-71.4,88.5-94.5
		c65.8-41,138.6-64,215.5-73.2c20-2.4,40.4-2.5,58.7,8.7c2.4,1.5,6,3.1,8.3,2.4c24.1-7,46.9,1.1,69.7,6.3
		c57.9,13.3,114.8,29.8,169.4,53.5c11,4.8,21,11.2,26.5,21.5c6.5,12,16.5,18,27.9,23.7c39.9,19.8,75.3,46.2,110.3,75.1
		c-38.2,21-72.7,45.2-106,71.1c-7.3,5.7-13.5-0.2-19.6-2.4c-55.3-20.3-111.2-38.6-167.2-56.7c-3.2-1-6.5-1.9-12.4-3.5
		c46.5-39.1,96.5-68.9,150-94.9c-13.1-1.9-21.7,0-40.2,8.2c-43.1,19.2-82,45.1-118.8,74.3c-6,4.7-10.4,5.2-17.5,2.9
		C2228.8,579.7,2141.5,556.4,2049.1,542.6z M2024.6,696.9c21.1-14.8,43.5-27.2,60.5-46.8C2060.6,660.3,2041.9,677.9,2024.6,696.9z
		 M1935.8,633.6c9.6,14.6,22.2,26.2,37,35.6C1960.4,657.3,1948.1,645.4,1935.8,633.6z"/>
	<path d="M2556.9,2633.7c2.7-1.4,6.1-2.5,6.3-5.8c0.4-4.2,1.5-6.9,6.2-6c3.4,0.6,5,3.2,5.4,6.4c0.5,3.5,1.3,8-3,9.1
		c-12.6,3.2-8.9,8.9-3.4,15.8c5.6,6.9,4.9,12.2-5,13.4c-10.3,1.2-17.5,3.8-13,16.7c1.3,3.8,2.1,9.2-3.1,12.2
		c-4.9,2.8-8.5-0.4-12.4-2.7c-4.7-2.7-9.3-6.5-14.4-7.2c-6.6-1-12,3.9-13.3,10c-1.4,6.3,3.5,9.9,9.7,10.9c3.6,0.6,8,0.5,5.4,5.9
		c-1.9,3.9-5.5,3.8-8.9,1.4c-0.4-0.3-0.8-0.7-1.2-1c-8-5.3-17.5-6.8-22.8,1.2c-6.6,9.8,8.4,9.3,10.6,15.4c-2.8,4.9-6,2.5-9.2,1.1
		c-5-2.1-8.6-1.3-10.3,4.6c-3.5,11.5-13.8,14.6-23.3,19.1c-51.8,24.7-101.9,52.8-154.9,75c-65.4,27.4-130.6,55.2-197.3,79.5
		c-3.6,1.3-7.1,3-10.2,5.6c163.8-36,318.1-97.2,465.6-176.7c-147.1,116.8-307,209.6-487,266c108.2-22.2,216-45.3,321.6-77.1
		c106.1-31.9,209.7-69.8,308.8-120.9c-11.2,8.3-22.3,16.8-33.6,25c-11.4,8.2-23,16.3-34.7,24.2c-125.8,84.7-265.4,135.7-412.3,169.2
		c-115.9,26.4-233,43.8-351.7,51.9c-72.9,5-145.8,5.5-218.7,7.5c-21.4,0.6-42.8,0.1-64.3-1c51.4-11,103.7-16.9,154.9-28.5
		c52-11.8,103.3-25.8,154.3-41.6c50.9-15.8,100.6-34.7,150.7-52.7c-217.3,33.2-430.8,89.5-651.6,102.3
		c337.2-43.4,641.5-172.8,926-355c3.7,7-2,16.6,7.9,15.7c7.9-0.8,5-7.8,4-12c-1.6-6.9,1.5-10.2,6.7-13.4
		c24-14.8,47.8-29.8,71.9-44.6c3.5-2.1,7.3-6.2,12-1.2c3.4,3.7,3.9,1.9,2.3-1.6c-2.8-6.5,3.2-7.5,6.3-9.9
		c5.6-4.3,11.5-8.2,17.5-11.9c27.1-17,54.3-34,82.8-49.3c-29.5,25.6-58.6,51.8-88.6,76.8c-30.1,25-61.3,48.7-91.9,73.1
		c-31.1,24.8-61.8,50-95.2,72.2c3.4,4.1,5.6,0.6,7.5-0.5c36.4-21.4,72.6-43.3,105.6-69.9c6.6-5.3,13.9-9.8,20.7-14.9
		c3.3-2.5,5.6-4.2,7.6,1.4c0.9,2.5,3.7,5.7,6.9,2.8c1.4-1.3,2.1-6.1,1.1-6.8c-12-9.4,1-12.1,4.8-14.7
		c40.8-27.3,75.3-61.8,110.5-95.4c4-3.8,7.5-8.1,11.2-12.3c3.2-3.5,6.7-6.6,11.7-3.9c4.8,2.6,5.3,7.4,3.7,11.9
		c-3.4,9.4-11.1,19.5,5.6,24.4c0.2,0.1-1.1,5.3-1.7,8.1c-8.6,1.3-11.8-3-12.3-11c-0.4-6.7-4.9-9.6-11.2-9.7c-4.6-0.1-7.3,3.1-8.8,7
		c-4.2,10.8,10,4.5,11.5,13.5c-23.1-7.9-29.5,12.5-44.2,20.5c11.3,10.6,23.5-9.5,32.2,5.1c-0.7,0.6-1.3,1.3-2,1.9
		c-3.4,2.8-10.8-0.3-11,6.2c-0.2,4,1.2,10.5,6.2,10.7c5.1,0.2,11-2.4,12.4-8.8c1.5-7,6.7-4,10.8-4.6
		C2556.3,2658.9,2563.1,2649.1,2556.9,2633.7z M2441.8,2740.3c-1.7-6.5-3.7-13.1-12.1-12.5c-5.1,0.4-11.9,0.7-11.8,8.2
		c0.1,8.6,5.6,14.1,13.7,15C2437.9,2751.6,2440.7,2746.1,2441.8,2740.3z M2498,2679.7c-4.6-3.6-4.7-12.8-13.5-13.1
		c-7-0.2-9.8,5.2-9.2,10.8c0.7,6.2,3,13.4,11.2,13.1C2491.9,2690.2,2497.1,2687.5,2498,2679.7z M2290.6,2762.5
		c-3.2-2.5-1-9.6-7.7-10.5c-5.9-0.8-9.6,2.7-10.5,8.2c-0.8,4.4-1.3,10.3,4.6,10.8C2282.1,2771.5,2288.2,2770.4,2290.6,2762.5z
		 M2362,2767.5c6-1.1,8.9-5.6,9.7-11.2c0.5-3.4-0.8-7.9-5.2-7c-5.8,1.2-11.4,4.1-12.2,10.9C2353.6,2765.2,2357.3,2767,2362,2767.5z"
		/>
	<path d="M2928.6,1231.1c5.6,28.2,0,55-3.2,81.8c-5.2,44.4-13.4,88.3-24.7,131.6c-2.6,10.1-7.5,16.4-17,21
		c-66.1,31.4-134.9,54.9-208.2,73.3c6.1-19.1,11.9-36.3,17.2-53.6c12.7-40.8,22.1-82.4,29.6-124.4c1-5.5,1.5-9.9,7.9-13
		c67.8-33.3,133.4-70.3,194.2-115.3C2925.2,1231.9,2926.3,1231.8,2928.6,1231.1z"/>
	<path d="M1378.8,2930.5c-86.8,22.8-175.1,26.2-263.8,24.7c-97.7-1.7-194.5-10.8-289.9-33.2c-103.7-24.3-176.9-87.5-230.3-176.7
		c-9-15.1-17-30.8-25.4-46.3c-0.6-1.2-0.8-2.6-1.5-5c88.5,88.4,194.7,142.2,314.3,170.7c67,16,135,26.1,203.6,32.9
		c55.5,5.5,111.1,8.2,166.8,9.6c-42.7,6.2-86.1,4.8-128.7,12.4C1208.8,2927.2,1293.8,2931.6,1378.8,2930.5z"/>
	<path d="M2654.3,1575.8c6.5-23.9,27.3-23.7,45.3-28.5c62.6-16.8,123.6-38.1,184.4-66.5c-5.9,22.7-16.4,41.5-26.3,60.3
		c-9.4,17.8-21.1,34.3-30.5,52.1c-8.6,16.4-21.7,25.1-39.1,29.8c-51.4,13.9-102.5,29.6-155.6,35.7c-16.1,1.8-32.6,6.7-49.1,1.3
		c-20.6-6.8-26.7-17.1-20-37.4c7.8-23.4,13.2-47.4,19-71.3c1.7-7,3-12.8,12.4-6.5c14.7,9.8,32,12.2,49.1,11.7
		c12.3-0.3,15.6,2.7,10.3,14C2653.4,1571.8,2654.2,1574,2654.3,1575.8z"/>
	<path d="M616.7,2664.7c108.9,82.9,233,130.1,364.9,159.6c63.3,14.2,127.1,25.5,191.2,35c53.7,8,107.8,13.5,162.1,17.6
		c-49.9,5.7-100,9.1-150.2,6.8c-48.7-2.2-97.3-5.3-145.8-10.9c-122-14.1-236.1-49.4-336.8-121.9
		C668.7,2727,641.7,2696.8,616.7,2664.7z"/>
	<path d="M2583.6,1383.1c22.3,13.1,44.4,12.2,63,7.1c18.4-5.1,35.1-18.5,54.6-28.3c-0.4,18.3-4.9,34.5-8.2,50.8
		c-7.7,38.4-16.9,76.5-28.7,113.9c-3.1,9.8-7.7,14.6-18.5,16.2c-16.8,2.6-33,3.4-48.6-4.4c-5.4-2.7-10.6-5.7-10.5-13.2
		C2587.5,1479,2587.9,1432.7,2583.6,1383.1z"/>
	<path d="M2518.9,1721.8c-2.2-4-1-7.5,1.2-11.3c10.5-17.8,20.8-35.6,31-53.5c3-5.2,5.4-8.3,10.9-2.3c8.4,9.2,18.5,15.2,31.4,15.8
		c11.3,0.5,4.2,5.7,2.5,8.8c67.4-11.3,134.6-24.7,200.1-46.7c-22,28.4-45.5,55.3-75.3,74.6c-19,12.3-42.7,13.6-64.9,17.5
		c-32.6,5.7-65,12-98.2,14.3c-17.5,1.2-29.9-2.8-39-17.4L2518.9,1721.8z"/>
	<path d="M755.7,2695.3c93.7,41,190.1,74,290.2,96.6c-17-7.4-34-14.8-51-22.2c113.4,31.4,227.4,58.7,343.7,76.4
		c-35.6,3.8-71,1.4-106.2-1.6c-71.6-6-142.4-18.2-212.7-32.8C923.6,2791.9,835.4,2753.3,755.7,2695.3z"/>
	<path d="M2642.2,1355.9c1,22.3-1.5,24.7-28,27.4c-20.4,2.1-30.7-4.8-33.3-22.9c-6.7-46.8-17.9-92.6-31.2-137.9
		c-3.3-11.2-5.3-18.7,11.8-16.5c15.7,2,30.6-4.3,44.7-11.2c6.6-3.3,9.6-3.8,11.7,5.6C2629.1,1251.7,2636.7,1303.6,2642.2,1355.9z"/>
	<path d="M2518.6,1721.5c4,18.7,11.3,24.8,29.2,24.1c46.3-2,91.6-10.4,136.7-20.4c2.4-0.5,4.7-0.9,11.3-2.2
		c-22.2,16.6-42.4,28.9-64.5,36.5c-33.3,11.5-64.2,29.7-99.7,35.2c-17.9,2.8-35.8,5.1-53.9,4.5c-9.2-0.3-18-2.4-26.1-6.7
		c-8.3-4.4-12.4-8.5-0.7-15c21.8-12.2,38.4-30.6,55.1-48.8c3.3-3.6,5.5-10.7,13-6.9C2518.9,1721.8,2518.6,1721.5,2518.6,1721.5z"/>
	<path d="M1341.9,2811.8c-64.9,0.5-127.4-12.3-187.6-36.8C1216.8,2787.3,1279.3,2799.6,1341.9,2811.8z"/>
	<path d="M2616.1,2638.8c-0.9,4.9-4.6,6.5-9.6,7c-10.7,1.1-13.3,6.9-7,15.2c3.6,4.8,1.3,8-1.4,10.4c-4,3.6-9.4,3.7-14,0.6
		c-4.4-3-1.1-6.8,0.5-9.2c4.8-7.5,4.7-16.1,6.9-24.2c2.1-7.6,7.3-11.4,16.2-8.9C2612.8,2631,2616.3,2632.5,2616.1,2638.8z"/>
	<path d="M2604,2489.6c-4.6-1.5-9.9-3.7-10.2-10.2c-0.4-7,14.7-19.5,21.4-17.6c5.1,1.5,10.1,4.4,8.8,11.7
		C2622.7,2481,2611.8,2490.3,2604,2489.6z"/>
	<path d="M2696,2662.7c-3,9-8,15.7-17.7,16.1c-5.7,0.3-12.2-2.2-10.6-9.3c1.9-8.5,4.6-18.1,16.5-18.1
		C2691.7,2651.4,2694.3,2656.5,2696,2662.7z"/>
	<path d="M2745.8,2485.1c7.6,0.6,10.7,5.1,10.9,11.9c0.2,8.7-6.9,10.6-13,11.6c-6.2,1-10.9-3.7-10.7-9.7
		C2733.2,2491.3,2738.3,2486.6,2745.8,2485.1z"/>
	<path d="M2570.1,2514c-5-2.2-10.5-3.9-10.7-10.7c-0.2-7.3,3-13,10.3-13.9c5.8-0.7,11.2,2.8,10.7,9.5
		C2580,2505.3,2576.8,2511.1,2570.1,2514z"/>
	<path d="M2648,2428.2c-0.3,11.1-11.6,7.8-17.2,11.8c-3.4,2.4-7.7-3.5-6.9-8.7c1.3-9,7.8-12.4,15.9-13.1
		C2646.7,2417.6,2648.2,2422.3,2648,2428.2z"/>
	<path d="M2556.1,2469.1c-1.9,7.5-7.9,9.6-14.7,9.5c-4-0.1-10.4,0.4-8.9-6.6c1.3-6.4,4.4-12.9,12.3-13
		C2550.8,2459,2555.1,2462.3,2556.1,2469.1z"/>
	<path d="M2580.8,2597.1c-0.6,3.7-3.9,5.9-8.1,6c-6.7,0.1-11.3-3.2-12.8-10c-1.2-5.8-0.6-10.7,6-13.2c5.6-2.2,7.3-0.2,6.7,5
		C2572,2591.2,2581.3,2590,2580.8,2597.1z"/>
	<path d="M2739.8,2265.1c-5.8-0.5-11.1-1.8-10.6-9.3c0.4-5.9,2.8-11.4,9.5-10.9c5.3,0.4,11,3,11.3,9.8
		C2750.3,2261.4,2746,2264.4,2739.8,2265.1z"/>
	<path d="M2643.9,2265.5c-0.1,6.1-2.1,10.7-9,11.5c-7.4,0.8-10.2-4-9.9-9.9c0.3-4.9,0.3-11.2,8.5-11.4
		C2640.6,2255.6,2643.2,2259.2,2643.9,2265.5z"/>
	<path d="M2720.8,2399.9c-5-0.6-7.9-3.4-6.6-8.1c1.6-5.9,1.6-14,10-14.7c6.8-0.5,7.6,5.1,7.3,10.6
		C2731.3,2394.9,2727.8,2399,2720.8,2399.9z"/>
	<path d="M2610.5,2754.5c-1.2,7.4-5.6,10.5-11.6,10.5c-5.9,0.1-9.3-3.4-9.1-9.5c0.3-7.5,4.5-10.6,11.8-10.4
		C2608.2,2745.4,2609.2,2750.5,2610.5,2754.5z"/>
	<path d="M2728.5,2425.4c6.3-0.1,10.8,2,10.6,9.2c-0.2,5.4-1.9,10.6-8.2,9.9c-5.9-0.6-12.3-3.6-12.5-10.5
		C2718.3,2429,2722.4,2425.2,2728.5,2425.4z"/>
	<path d="M2493.5,2555c-4.3,1.3-10-2.7-13.2,3.7c-1.2,2.4-2.1,8.2-6.8,4.4c-3.2-2.6-7.3-5.8-5.5-11.2c1.3-4,4.1-8.6,8.2-6.3
		c5.7,3.2,18.1-5,17,9.6L2493.5,2555z"/>
	<path d="M2432,2610.7c0,3.4-1.7,6.6-4.5,6.9c-6.9,0.7-12,7.2-19.4,5.7c-0.7-0.1-1.5-1.3-1.7-2.2c-0.8-4,16.2-18.5,20-17.1
		C2429.4,2605.3,2431.1,2607.7,2432,2610.7z"/>
	<path d="M2605.5,2585.7c-3.7-0.8-9.8-1-9.2-7.9c0.4-4.7,1.9-10.2,8.5-10.6c7.2-0.4,9.6,3.9,9.8,10.4
		C2614.8,2583.2,2612.5,2586.1,2605.5,2585.7z"/>
	<path d="M2529.4,2813.4c5.4,0.7,11,1.3,11.1,7.8c0.1,5.5-3.1,9.3-9.3,9c-5.6-0.2-9.5-2.9-9.7-8.9
		C2521.3,2815.9,2524.3,2813.1,2529.4,2813.4z"/>
	<path d="M2778.2,2398.2c6.6-0.1,8.8,2.7,8.5,8.3c-0.4,6.4-4.8,8.6-9.9,9c-5.2,0.5-8.3-2.6-8.5-8
		C2768,2399.9,2773.4,2398.8,2778.2,2398.2z"/>
	<path d="M2644.5,2394.1c-0.3,6.9-5.5,8.8-11,9.7c-4.1,0.7-9.3-0.2-8.9-5c0.4-4.8,2-11.1,9.9-10.1
		C2638.5,2389.2,2643.9,2387,2644.5,2394.1z"/>
	<path d="M2538.4,2532.6c2.7-4.4-9.2-13.4,3.7-13.9c4.3-0.2,8.7,5.2,13.1,8c-8,0.8-5.4,13.6-14.4,13
		C2534.7,2539.4,2536.2,2536,2538.4,2532.6z"/>
	<path d="M2332.1,2662c-1.7,5-5.1,8.1-10.8,8.3c-5.5,0.2-6.6-3.2-6.3-7.7c0.4-5.5,2.1-10.2,8.6-9.7
		C2328.4,2653.3,2331.4,2656.7,2332.1,2662z"/>
	<path d="M2768.5,2611.6c0.5,6.6-3.8,7.5-8.7,7.3c-4.7-0.2-9.6-0.4-8.3-7.3c1-5.4,3.8-9.7,9.7-9.3
		C2766.4,2602.7,2769.2,2606.2,2768.5,2611.6z"/>
	<path d="M2634.9,2335.2c-4.9,3.1-1.7,9-4,13.1c-2.1,3.7-6,6.1-10,3.4c-4.2-2.8-1.8-7,1.3-8.3c6.2-2.6,2-6.4,2.1-9.8
		c0.1-2.9,1.2-7.7,3.6-6.9C2630.7,2327.6,2635.5,2329.6,2634.9,2335.2z"/>
	<path d="M2818.9,2297.4c-1.1,4.6-2.9,9.2-8.4,8.8c-4.4-0.3-9.2-2-8.5-8c0.5-4.7,2.5-8.9,8-9
		C2815.2,2289.2,2818.2,2292.3,2818.9,2297.4z"/>
	<path d="M2778.6,2364.8c-0.6,4.7-2,9.3-7.9,8.1c-4.6-0.9-10.2-2.6-10.2-8.8c0-5.1,3.4-7.9,8.7-8
		C2775.1,2356,2778.6,2358.5,2778.6,2364.8z"/>
	<path d="M2457.1,2567.8c-0.5,5-2.6,8.7-8.3,8.1c-4.8-0.5-9-3.1-8.7-8.4c0.3-5.4,3.1-9.9,9.3-9.3
		C2454.7,2558.7,2456.8,2562.8,2457.1,2567.8z"/>
	<path d="M2775,2571c-0.4,6.1-4.9,7.6-9.5,7.3c-5-0.3-8.4-4-8.2-9.1c0.2-4.9,2.8-8.4,8.7-8C2772.5,2561.5,2774.6,2565.4,2775,2571z"
		/>
	<path d="M721.5,2328.7c-2.2,15.8-12.5,29.2-14.5,45.2c-4.9-18,4.3-32,13.5-46.1C720.5,2327.7,721.5,2328.7,721.5,2328.7z"/>
	<path d="M2493.2,2555.2c3.1,1.2,6.2,2.5,9.4,3.7c3.6,1.4,10.2-1.2,9,6.3c-0.9,5.4-6.2,6.3-10.4,6.9c-5.6,0.7-7.8-2.9-7.5-8.3
		c0.1-2.9-0.1-5.9-0.2-8.9C2493.5,2555,2493.2,2555.2,2493.2,2555.2z"/>
	<path d="M2671.3,2344.6c-2.3,4.7-6.6,7.7-12.5,7.4c-4.6-0.2-5.3-3.7-4.4-7.5c1.2-5.5,4.6-8.9,10.2-8.3
		C2668.5,2336.6,2672.4,2338.5,2671.3,2344.6z"/>
	<path d="M2722.9,2329c0.2,5.1-2,8.7-6.5,9.1c-5.1,0.4-8.5-2.9-8.9-8.1c-0.4-4.7,0.3-9.9,6-10.5
		C2719.9,2318.9,2721.1,2324.9,2722.9,2329z"/>
	<path d="M2677.3,2367.2c-1.9,5.3-5.8,8.7-11.9,9.1c-3.6,0.2-5.8-1.8-5.2-5.4c1-5.8,3.9-10.3,10.5-10.4
		C2674.6,2360.5,2677.3,2362.4,2677.3,2367.2z"/>
	<path d="M2731.3,2237.5c-0.9,6-4.6,6.9-8.8,6.8c-6-0.1-9-3.1-8.5-9.3c0.4-4.9,3.2-6.9,7.9-6.4
		C2727.8,2229.3,2730.2,2233.2,2731.3,2237.5z"/>
	<path d="M2681.5,2228.7c-0.5,4.1-3.2,6.6-7.9,6c-4.7-0.6-9-2.2-8.1-8.4c0.7-4.8,1.9-9,8.3-7.7
		C2679,2219.7,2681.7,2222.6,2681.5,2228.7z"/>
	<path d="M2671.3,2547c-1,5.3-4.8,7.6-9.6,8c-4.9,0.4-8-2.5-7.2-7.2c0.7-4.6,3-8.3,9-8C2668.4,2540.1,2670.8,2542.2,2671.3,2547z"/>
	<path d="M2623.5,2609.3c-3.9-0.7-9.1-0.7-8.8-6.9c0.3-5.7,5.9-6.7,9.8-6.9c3.9-0.2,7.7,2.6,7.5,7.4
		C2631.9,2607.7,2628.6,2609.6,2623.5,2609.3z"/>
	<path d="M2710.4,2491.8c3.4-0.1,5.9,1.9,4.9,5.4c-1.4,4.8-0.6,12.1-8.4,12.2c-3.4,0-7.5-1.9-7.2-6.2
		C2700.1,2497.1,2704.7,2493.9,2710.4,2491.8z"/>
	<path d="M2616.4,2507.8c0.6,2.8,1.2,3.8,1,4.6c-2.6,8.5-8,15.2-16.2,17.9c-5.1,1.7-4-6,3.2-12.5c2.2-2,4.2-4.2,6.4-6.2
		C2612.2,2510.4,2613.9,2509.4,2616.4,2507.8z"/>
	<path d="M2601.7,2195.3c5.2,0.3,6.5,3.5,6.6,8.1c0,5.9-3.2,8-8.6,7.3c-3.9-0.5-6.8-2.3-5.7-6.8
		C2594.9,2199.7,2594.9,2194.4,2601.7,2195.3z"/>
	<path d="M2672.1,2705.6c5.4,0.2,6.6,3.4,6.8,7.1c0.3,5.3-1.9,8.7-7.8,8.3c-3.7-0.2-7.8-0.9-7.7-5.2
		C2663.6,2710.2,2667.9,2707.3,2672.1,2705.6z"/>
	<path d="M2823.2,2387.5c-0.2,4.3-0.9,7.1-5.3,5.7c-4.3-1.4-9-2.6-9.2-8.2c-0.1-3.7,1.6-7.7,5.7-7.2
		C2819.9,2378.6,2822,2383.5,2823.2,2387.5z"/>
	<path d="M2667.3,2519.7c-0.3,5.5-3.8,4.9-6.6,5c-4.8,0.3-9.5-0.4-9.2-6.6c0.2-3,1.5-8.6,5.4-7.2
		C2661.1,2512.4,2664.2,2517,2667.3,2519.7z"/>
	<path d="M2522.3,2538.7c-1.2,5.6-3.2,9.9-8.9,9.1c-3.5-0.6-9.1-0.4-8.8-6c0.4-7.4,7.3-5.2,11.6-6.5
		C2519.5,2534.3,2522.1,2535.6,2522.3,2538.7z"/>
	<path d="M2601.1,2437.7c-0.6,4.6-2.9,7.9-7.2,8.4c-3.9,0.4-6.7-2.3-6.1-6.4c0.6-4.1,0.7-10.1,5.5-10.9
		C2598.8,2427.9,2599.1,2434.2,2601.1,2437.7z"/>
	<path d="M2349.9,2176.4c2.9,0.6,6.9,0.9,6.5,5.7c-0.4,4.9-3.3,8.5-8.2,8.9c-4,0.3-5.7-2.8-5.8-6.8
		C2342.3,2179.2,2345.1,2177.1,2349.9,2176.4z"/>
	<path d="M2665.2,2587.1c-3.6-0.8-6.2-2.8-5.7-6.1c0.8-5.2,3.8-9.4,9.8-9.1c3,0.2,5.4,2.2,4.2,6.2
		C2672.1,2582.8,2670.2,2586.5,2665.2,2587.1z"/>
	<path d="M2790.2,2534.7c0.1,5.2-1.9,8.2-6.8,8.6c-5.2,0.4-7.2-3.2-7.1-7.5c0.1-4.7,3.7-6.8,8-7.3
		C2789.1,2528,2789.7,2531.7,2790.2,2534.7z"/>
	<path d="M2597.9,2264.8c-4.5-0.9-6.9-3.9-6.9-8.2c-0.1-4.5,2.4-7.3,7.4-6.9c5.7,0.4,5.2,5,5.5,8.7
		C2604.2,2262.3,2602.4,2265,2597.9,2264.8z"/>
	<path d="M2462.1,2145.1c-1.1,3.2-0.9,7.3-5.7,7.5c-4.9,0.1-7.2-3.1-7.7-7.4c-0.6-5.2,2.8-6.9,7.4-6.9
		C2460.7,2138.2,2461.8,2141.3,2462.1,2145.1z"/>
</g>
</svg>
